<?xml version="1.0" encoding="iso-8859-1"?>
<!-- Generator: Adobe Illustrator 19.0.0, SVG Export Plug-In . SVG Version: 6.00 Build 0)  -->
<svg version="1.1" id="Layer_1" xmlns="http://www.w3.org/2000/svg" xmlns:xlink="http://www.w3.org/1999/xlink" x="0px" y="0px"
	 viewBox="0 0 512 512" style="enable-background:new 0 0 512 512;" xml:space="preserve">
<g>
	<g>
		<path d="M301.027,26.947C292.259,10.59,274.948,0,256,0s-36.259,10.59-45.027,26.947H64.674V512h382.653V26.947H301.027z
			 M232.803,80.842l-6.986-12.121c-3.216-5.582-4.848-11.477-4.848-17.521c0-4.226,0.774-8.417,2.237-12.12l0.067-0.177
			c5.011-13.598,18.163-22.735,32.728-22.735c14.566,0,27.717,9.137,32.728,22.736l0.067,0.177
			c1.463,3.701,2.237,7.892,2.237,12.119c0,6.044-1.632,11.939-4.848,17.521l-6.986,12.121h68.424c1.461,0,2.695,1.234,2.695,2.695
			V102.4H161.684V83.537c0-1.461,1.234-2.695,2.695-2.695H232.803z M366.484,118.568V102.4h26.947v361.095H118.568V102.4h26.947
			v16.168H366.484z M431.158,495.832H80.842V43.116h124.621c-0.43,2.66-0.663,5.371-0.663,8.084c0,4.519,0.64,9.052,1.886,13.474
			h-42.307c-10.401,0-18.863,8.463-18.863,18.863v2.695H102.4v393.432h307.2V86.232h-43.116v-2.695
			c0-10.401-8.463-18.863-18.863-18.863h-42.307c1.246-4.422,1.886-8.955,1.886-13.474c0-2.713-0.233-5.424-0.663-8.084h124.621
			V495.832z"/>
	</g>
</g>
<g>
	<g>
		<rect x="245.221" y="43.116" width="21.558" height="16.168"/>
	</g>
</g>
<g>
	<g>
		<rect x="142.821" y="161.684" width="32.337" height="16.168"/>
	</g>
</g>
<g>
	<g>
		<rect x="196.716" y="161.684" width="172.463" height="16.168"/>
	</g>
</g>
<g>
	<g>
		<rect x="142.821" y="269.474" width="32.337" height="16.168"/>
	</g>
</g>
<g>
	<g>
		<rect x="196.716" y="269.474" width="172.463" height="16.168"/>
	</g>
</g>
<g>
	<g>
		<rect x="142.821" y="377.263" width="32.337" height="16.168"/>
	</g>
</g>
<g>
	<g>
		<rect x="196.716" y="377.263" width="172.463" height="16.168"/>
	</g>
</g>
<g>
	<g>
		<rect x="196.716" y="194.021" width="64.674" height="16.168"/>
	</g>
</g>
<g>
	<g>
		<rect x="196.716" y="301.811" width="64.674" height="16.168"/>
	</g>
</g>
<g>
	<g>
		<rect x="196.716" y="409.6" width="64.674" height="16.168"/>
	</g>
</g>
<g>
</g>
<g>
</g>
<g>
</g>
<g>
</g>
<g>
</g>
<g>
</g>
<g>
</g>
<g>
</g>
<g>
</g>
<g>
</g>
<g>
</g>
<g>
</g>
<g>
</g>
<g>
</g>
<g>
</g>
</svg>
